HIERARCHY
ROOT Hips
{
	OFFSET 47.617802 -22.231516 95.688904
	CHANNELS 6 Xposition Yposition Zposition Xrotation Yrotation Zrotation
	JOINT spine
	{
		OFFSET 0.000000 -0.467661 8.132492
		CHANNELS 3 Xrotation Yrotation Zrotation
		JOINT spine1
		{
			OFFSET 0.000000 -0.000002 10.349800
			CHANNELS 3 Xrotation Yrotation Zrotation
			JOINT spine2
			{
				OFFSET 0.000000 -0.000002 9.916992
				CHANNELS 3 Xrotation Yrotation Zrotation
				JOINT Neck
				{
					OFFSET 0.000000 -1.213903 25.461006
					CHANNELS 3 Xrotation Yrotation Zrotation
					JOINT Head
					{
						OFFSET 0.000000 0.000000 7.692444
						CHANNELS 3 Xrotation Yrotation Zrotation
						End Site
						{
							OFFSET 0.000000 6.140625 18.619995
						}
					}
				}
				JOINT RightShoulder
				{
					OFFSET -4.175751 0.581444 10.709602
					CHANNELS 3 Xrotation Yrotation Zrotation
					JOINT RightArm
					{
						OFFSET 0.000000 -0.000002 14.046600
						CHANNELS 3 Xrotation Yrotation Zrotation
						JOINT RightArmRoll
						{
							OFFSET 0.000000 0.000000 7.090973
							CHANNELS 3 Xrotation Yrotation Zrotation
							JOINT RightForeArm
							{
								OFFSET 0.000000 -0.000004 20.653503
								CHANNELS 3 Xrotation Yrotation Zrotation
								JOINT RightForeArmRoll
								{
									OFFSET 0.000000 -0.000002 7.957184
									CHANNELS 3 Xrotation Yrotation Zrotation
									JOINT RightHand
									{
										OFFSET 0.000000 -0.000002 15.968292
										CHANNELS 3 Xrotation Yrotation Zrotation
										End Site
										{
											OFFSET 0.000000 0.000000 0.100006
										}
									}
								}
							}
						}
					}
				}
				JOINT LeftShoulder
				{
					OFFSET 4.175751 0.581444 10.709602
					CHANNELS 3 Xrotation Yrotation Zrotation
					JOINT LeftArm
					{
						OFFSET 0.000000 -0.000002 14.046600
						CHANNELS 3 Xrotation Yrotation Zrotation
						JOINT LeftArmRoll
						{
							OFFSET 0.000000 0.000000 7.090973
							CHANNELS 3 Xrotation Yrotation Zrotation
							JOINT LeftForeArm
							{
								OFFSET 0.000000 -0.000004 20.653503
								CHANNELS 3 Xrotation Yrotation Zrotation
								JOINT LeftForeArmRoll
								{
									OFFSET 0.000000 -0.000002 7.957184
									CHANNELS 3 Xrotation Yrotation Zrotation
									JOINT LeftHand
									{
										OFFSET 0.000000 -0.000002 15.968292
										CHANNELS 3 Xrotation Yrotation Zrotation
										End Site
										{
											OFFSET 0.000000 0.000000 0.100006
										}
									}
								}
							}
						}
					}
				}
			}
		}
	}
	JOINT RightUpLeg
	{
		OFFSET -7.208340 1.108839 -1.321823
		CHANNELS 3 Xrotation Yrotation Zrotation
		JOINT RightUpLegRoll
		{
			OFFSET 0.000000 -0.000004 18.723801
			CHANNELS 3 Xrotation Yrotation Zrotation
			JOINT RightLeg
			{
				OFFSET 0.000000 0.000004 -23.186600
				CHANNELS 3 Xrotation Yrotation Zrotation
				JOINT RightLegRoll
				{
					OFFSET 0.000000 -0.000004 23.262398
					CHANNELS 3 Xrotation Yrotation Zrotation
					JOINT RightFoot
					{
						OFFSET 0.000000 -0.000002 19.362099
						CHANNELS 3 Xrotation Yrotation Zrotation
						JOINT RightToeBase
						{
							OFFSET 0.000000 -0.000004 16.185699
							CHANNELS 3 Xrotation Yrotation Zrotation
							End Site
							{
								OFFSET 0.006859 0.903522 7.838623
							}
						}
					}
				}
			}
		}
	}
	JOINT LeftUpLeg
	{
		OFFSET 7.208340 1.108839 -1.321823
		CHANNELS 3 Xrotation Yrotation Zrotation
		JOINT LeftUpLegRoll
		{
			OFFSET 0.000000 -0.000004 18.723900
			CHANNELS 3 Xrotation Yrotation Zrotation
			JOINT LeftLeg
			{
				OFFSET 0.000000 -0.000004 23.186501
				CHANNELS 3 Xrotation Yrotation Zrotation
				JOINT LeftLegRoll
				{
					OFFSET 0.000000 -0.000004 23.477493
					CHANNELS 3 Xrotation Yrotation Zrotation
					JOINT LeftFoot
					{
						OFFSET 0.000000 -0.000002 19.147003
						CHANNELS 3 Xrotation Yrotation Zrotation
						JOINT LeftToeBase
						{
							OFFSET 0.000000 -0.000004 16.185699
							CHANNELS 3 Xrotation Yrotation Zrotation
							End Site
							{
								OFFSET -0.030746 0.903522 7.838623
							}
						}
					}
				}
			}
		}
	}
}
MOTION
Frames: 6
Frame Time: 0.041667
51.900898 -11.177616 96.182182 -5.279389 -0.350376 -2.418856 -0.918761 -0.368646 0.064885 2.165111 -0.739829 0.127462 3.810247 -0.738250 0.136315 11.438948 6.109943 -0.971688 0.464464 -3.721719 -0.930604 -16.536935 -55.586361 -19.489443 -44.369011 -120.363028 -16.024344 -0.000002 0.000004 0.000004 0.020269 -2.122590 -0.429561 -0.000007 0.000007 -3.007181 -5.000163 -7.999841 0.000013 -20.599465 60.707329 24.331845 -42.457928 114.054877 30.406312 -0.000001 -0.000019 0.000002 0.070342 8.718328 0.900856 -0.000001 -0.000003 3.003723 -5.000215 7.998912 -0.000130 -3.423599 -172.738845 3.492725 -179.999991 0.000005 -1.005003 165.243996 -1.267773 -0.761890 0.000000 -0.000000 0.226031 70.804446 6.506959 3.066961 25.457806 -7.351485 0.001353 -0.143461 175.192016 -0.343045 -0.000020 -0.000005 -1.113390 -12.696462 0.579235 0.571457 0.000000 0.000002 -0.226296 71.531417 -6.467432 -3.118956 25.464832 7.355618 -0.002406 
51.881695 -11.142318 96.175392 -5.272589 -0.351819 -2.411827 -0.920046 -0.370380 0.066604 2.161821 -0.743161 0.130861 3.806950 -0.741541 0.139754 11.455063 6.124648 -0.977616 0.447500 -3.723637 -0.936894 -16.532835 -55.565795 -19.484165 -44.335342 -120.363342 -15.996849 -0.000002 0.000003 0.000004 0.019897 -2.129220 -0.429563 -0.000008 0.000008 -3.007182 -5.000162 -7.999841 0.000012 -20.572571 60.734855 24.300015 -42.491020 114.038587 30.443338 -0.000001 -0.000019 0.000003 0.070342 8.721295 0.900262 0.000001 -0.000003 3.003722 -5.000213 7.998913 -0.000130 -3.435421 -172.741932 3.489528 -179.999991 0.000004 -1.004006 165.227412 -1.266711 -0.762002 0.000000 -0.000000 0.226034 70.809500 6.506888 3.065854 25.457809 -7.351484 0.001353 -0.166335 175.193013 -0.338035 -0.000020 -0.000005 -1.113240 -12.725752 0.575176 0.571772 0.000001 0.000002 -0.227002 71.545364 -6.467231 -3.116516 25.464832 7.355619 -0.002407 
51.872295 -11.157819 96.174683 -5.265610 -0.353317 -2.404892 -0.921391 -0.372174 0.068400 2.158354 -0.746613 0.134408 3.803482 -0.744948 0.143341 11.471986 6.139600 -0.983809 0.430113 -3.725496 -0.943429 -16.528745 -55.544816 -19.478882 -44.300901 -120.363369 -15.968108 -0.000002 0.000002 0.000002 0.019340 -2.135660 -0.429556 -0.000008 0.000008 -3.007184 -5.000160 -7.999842 0.000014 -20.544965 60.763214 24.267353 -42.525506 114.021498 30.481792 -0.000001 -0.000018 0.000003 0.070344 8.724327 0.899686 -0.000001 -0.000003 3.003722 -5.000210 7.998913 -0.000129 -3.448646 -172.746016 3.484567 -179.999991 0.000005 -1.004006 165.208821 -1.263710 -0.761649 0.000001 -0.000001 0.226032 70.815039 6.506334 3.066036 25.457807 -7.351486 0.001354 -0.190594 175.194024 -0.333002 -0.000020 -0.000004 -1.113020 -12.757744 0.571168 0.572226 0.000000 0.000003 -0.227755 71.560725 -6.466767 -3.114549 25.464837 7.355617 -0.002406 
51.882195 -11.196519 96.181290 -5.258510 -0.354856 -2.398019 -0.922774 -0.374009 0.070250 2.154745 -0.750148 0.138056 3.799875 -0.748438 0.147031 11.489420 6.154713 -0.990181 0.412443 -3.727324 -0.950135 -16.524666 -55.523636 -19.473607 -44.267197 -120.362495 -15.939935 -0.000003 0.000004 0.000002 0.018658 -2.141959 -0.429550 -0.000006 0.000007 -3.007184 -5.000164 -7.999841 0.000015 -20.516894 60.792167 24.234119 -42.558332 114.005092 30.518371 -0.000000 -0.000018 0.000003 0.070343 8.727377 0.899116 0.000000 -0.000003 3.003721 -5.000212 7.998912 -0.000129 -3.462839 -172.751112 3.478415 -179.999991 0.000006 -1.004005 165.188631 -1.259723 -0.762070 0.000001 -0.000000 0.226029 70.820975 6.505390 3.067228 25.457807 -7.351485 0.001353 -0.215820 175.195022 -0.327952 -0.000020 -0.000004 -1.112730 -12.791536 0.567199 0.572776 0.000000 0.000003 -0.228541 71.576981 -6.466168 -3.112810 25.464830 7.355617 -0.002407 
51.876892 -11.191820 96.178696 -5.251340 -0.356417 -2.391188 -0.924180 -0.375868 0.072132 2.151066 -0.753731 0.141764 3.796198 -0.751975 0.150779 11.507159 6.169917 -0.996663 0.394611 -3.729133 -0.956937 -16.520597 -55.502257 -19.468341 -44.232145 -120.362277 -15.910169 -0.000001 0.000003 0.000004 0.017902 -2.148179 -0.429549 -0.000006 0.000008 -3.007179 -5.000161 -7.999842 0.000015 -20.488450 60.821359 24.200460 -42.594050 113.987169 30.558089 -0.000001 -0.000020 0.000002 0.070344 8.730448 0.898557 0.000002 -0.000004 3.003721 -5.000212 7.998913 -0.000128 -3.477586 -172.756207 3.471524 -179.999991 0.000005 -1.002994 165.167566 -1.254766 -0.761252 0.000001 0.000000 0.226028 70.826965 6.504290 3.068892 25.457807 -7.351485 0.001354 -0.241599 175.196046 -0.322893 -0.000020 -0.000004 -1.112410 -12.826429 0.563251 0.573380 -0.000001 0.000002 -0.229345 71.593845 -6.465434 -3.111313 25.464832 7.355618 -0.002407 
51.886196 -11.208319 96.175903 -5.244140 -0.357980 -2.384356 -0.925594 -0.377734 0.074021 2.147367 -0.757326 0.145485 3.792500 -0.755524 0.154543 11.524999 6.185136 -1.003180 0.376730 -3.730930 -0.963767 -16.516492 -55.480776 -19.463024 -44.196955 -120.362003 -15.880074 -0.000001 0.000003 0.000003 0.017126 -2.154390 -0.429548 -0.000006 0.000007 -3.007184 -5.000163 -7.999839 0.000013 -20.459905 60.850674 24.166685 -42.628498 113.970053 30.596362 -0.000001 -0.000021 0.000002 0.070342 8.733527 0.897995 0.000001 -0.000004 3.003720 -5.000214 7.998911 -0.000130 -3.492491 -172.761316 3.464458 -179.999991 0.000005 -1.002995 165.146379 -1.249811 -0.761433 0.000000 -0.000000 0.226023 70.833146 6.503123 3.070634 25.457807 -7.351485 0.001353 -0.267520 175.196046 -0.317826 -0.000021 -0.000005 -1.112080 -12.861522 0.559307 0.573991 -0.000000 0.000002 -0.230155 71.610702 -6.464721 -3.109821 25.464834 7.355618 -0.002407 
